<svg t="1637220962552" class="icon" viewBox="0 0 1024 1024" version="1.1" xmlns="http://www.w3.org/2000/svg" p-id="4479" width="16" height="16"><path d="M913.92 518.582857l-86.308571 86.381714c-1.572571 5.339429-3.401143 10.532571-5.193143 15.725715A321.243429 321.243429 0 0 1 806.509714 658.285714c-0.658286 1.353143-1.243429 2.742857-1.938285 4.022857V804.571429H662.308571l-4.059428 1.974857c-12.105143 6.034286-24.649143 11.337143-37.595429 15.872-5.193143 1.792-10.386286 3.620571-15.725714 5.193143l-86.345143 86.308571c-2.230857 0.073143-4.388571 0.365714-6.619428 0.365714s-4.388571-0.292571-6.582858-0.365714l-86.345142-86.308571c-5.339429-1.572571-10.532571-3.401143-15.762286-5.193143A330.715429 330.715429 0 0 1 365.714286 806.546286c-1.316571-0.731429-2.706286-1.28-4.059429-1.974857H219.428571V662.308571L217.490286 658.285714a327.387429 327.387429 0 0 1-15.872-37.558857c-1.828571-5.229714-3.657143-10.422857-5.229715-15.762286L110.08 518.582857C110.043429 516.388571 109.714286 514.194286 109.714286 512s0.329143-4.388571 0.365714-6.582857l86.308571-86.345143c1.572571-5.339429 3.401143-10.532571 5.229715-15.762286 4.534857-12.909714 9.837714-25.453714 15.872-37.595428L219.428571 361.654857V219.428571H361.654857c1.353143-0.658286 2.742857-1.28 4.022857-1.938285 12.178286-6.034286 24.722286-11.337143 37.632-15.872 5.229714-1.828571 10.422857-3.657143 15.725715-5.229715l86.381714-86.308571c2.194286-0.036571 4.352-0.365714 6.582857-0.365714 2.194286 0 4.388571 0.329143 6.582857 0.365714l86.381714 86.308571c5.339429 1.572571 10.532571 3.401143 15.725715 5.229715 12.946286 4.534857 25.490286 9.837714 37.595428 15.872l4.022857 1.938285H804.571429V361.654857c0.694857 1.353143 1.28 2.742857 1.938285 4.022857 6.070857 12.178286 11.337143 24.722286 15.908572 37.632 1.792 5.229714 3.620571 10.422857 5.193143 15.725715l86.308571 86.381714c0.073143 2.194286 0.365714 4.352 0.365714 6.582857 0 2.194286-0.292571 4.388571-0.365714 6.582857z m58.368-58.294857l-80.932571-80.932571A398.116571 398.116571 0 0 0 877.714286 345.417143V146.285714h-199.094857a402.761143 402.761143 0 0 0-33.938286-13.604571l-80.969143-80.969143L512 0l-51.712 51.712-80.932571 80.969143c-11.556571 4.022857-22.893714 8.557714-33.938286 13.604571H146.285714v199.131429c-5.046857 11.044571-9.545143 22.308571-13.604571 33.938286l-80.969143 80.932571L0 512l51.712 51.712 80.969143 80.969143c4.022857 11.556571 8.557714 22.893714 13.604571 33.938286V877.714286h199.131429c11.044571 5.083429 22.381714 9.581714 33.938286 13.641143L512 1024l132.681143-132.644571c11.556571-4.059429 22.893714-8.557714 33.938286-13.641143H877.714286v-199.094857c5.046857-11.044571 9.581714-22.381714 13.641143-33.938286l80.932571-80.969143L1024 512l-51.712-51.712z" p-id="4480" fill="#e6e6e6"></path><path d="M632.429714 339.858286l-292.571428 292.571428 51.712 51.712 292.571428-292.571428zM438.857143 365.714286a73.142857 73.142857 0 1 0-146.322286 0.036571A73.142857 73.142857 0 0 0 438.857143 365.714286M658.285714 585.142857a73.142857 73.142857 0 1 0 0.036572 146.322286A73.142857 73.142857 0 0 0 658.285714 585.142857" p-id="4481" fill="#e6e6e6"></path></svg>